<svg width="15" height="15" viewBox="0 0 15 15" fill="none" xmlns="http://www.w3.org/2000/svg">
<path d="M2.46899 2.46875C-0.369101 5.30685 -0.369101 9.9058 2.46899 12.7439C5.30709 15.582 9.90604 15.582 12.7441 12.7439C15.5822 9.9058 15.5822 5.30685 12.7441 2.46875C9.90604 -0.369344 5.30709 -0.369344 2.46899 2.46875ZM11.1697 5.20327C11.3064 5.33999 11.3064 5.56372 11.1697 5.70045L9.26385 7.60632L11.1697 9.5122C11.3064 9.64892 11.3064 9.87266 11.1697 10.0094L10.0096 11.1695C9.8729 11.3062 9.64917 11.3062 9.51244 11.1695L7.60657 9.2636L5.70069 11.1695C5.56397 11.3062 5.34023 11.3062 5.20351 11.1695L4.04341 10.0094C3.90669 9.87266 3.90669 9.64892 4.04341 9.5122L5.94928 7.60632L4.04341 5.70045C3.90669 5.56372 3.90669 5.33999 4.04341 5.20327L5.20351 4.04317C5.34023 3.90644 5.56397 3.90644 5.70069 4.04317L7.60657 5.94904L9.51244 4.04317C9.64917 3.90644 9.8729 3.90644 10.0096 4.04317L11.1697 5.20327Z" fill="#B6B6B6"/>
</svg>
