<svg width="185" height="89" viewBox="0 0 185 89" fill="none" xmlns="http://www.w3.org/2000/svg">
<rect width="185" height="89" rx="10" fill="#EE6C4D"/>
<path d="M38.4844 36.2578C42 36.2578 44.6953 37.0234 46.5703 38.5547C48.4453 40.0859 49.3828 42.4141 49.3828 45.5391V63H44.3906L43.0078 59.4375H42.8203C42.0703 60.375 41.3047 61.1406 40.5234 61.7344C39.7422 62.3281 38.8438 62.7656 37.8281 63.0469C36.8125 63.3281 35.5781 63.4688 34.125 63.4688C32.5781 63.4688 31.1875 63.1719 29.9531 62.5781C28.7344 61.9844 27.7734 61.0781 27.0703 59.8594C26.3672 58.625 26.0156 57.0625 26.0156 55.1719C26.0156 52.3906 26.9922 50.3438 28.9453 49.0312C30.8984 47.7031 33.8281 46.9688 37.7344 46.8281L42.2812 46.6875V45.5391C42.2812 44.1641 41.9219 43.1562 41.2031 42.5156C40.4844 41.875 39.4844 41.5547 38.2031 41.5547C36.9375 41.5547 35.6953 41.7344 34.4766 42.0938C33.2578 42.4531 32.0391 42.9062 30.8203 43.4531L28.4531 38.625C29.8438 37.8906 31.3984 37.3125 33.1172 36.8906C34.8516 36.4688 36.6406 36.2578 38.4844 36.2578ZM42.2812 50.8594L39.5156 50.9531C37.2031 51.0156 35.5938 51.4297 34.6875 52.1953C33.7969 52.9609 33.3516 53.9688 33.3516 55.2188C33.3516 56.3125 33.6719 57.0938 34.3125 57.5625C34.9531 58.0156 35.7891 58.2422 36.8203 58.2422C38.3516 58.2422 39.6406 57.7891 40.6875 56.8828C41.75 55.9766 42.2812 54.6875 42.2812 53.0156V50.8594ZM67.4625 63.4688C64.5406 63.4688 62.1578 62.3281 60.3141 60.0469C58.4859 57.75 57.5719 54.3828 57.5719 49.9453C57.5719 45.4609 58.5016 42.0703 60.3609 39.7734C62.2203 37.4609 64.65 36.3047 67.65 36.3047C68.9 36.3047 70.0016 36.4766 70.9547 36.8203C71.9078 37.1641 72.7281 37.625 73.4156 38.2031C74.1187 38.7812 74.7125 39.4297 75.1969 40.1484H75.4312C75.3375 39.6484 75.2203 38.9141 75.0797 37.9453C74.9547 36.9609 74.8922 35.9531 74.8922 34.9219V26.5312H82.0641V63H76.5797L75.1969 59.6016H74.8922C74.4391 60.3203 73.8687 60.9766 73.1812 61.5703C72.5094 62.1484 71.7047 62.6094 70.7672 62.9531C69.8297 63.2969 68.7281 63.4688 67.4625 63.4688ZM69.9703 57.7734C71.9234 57.7734 73.2984 57.1953 74.0953 56.0391C74.9078 54.8672 75.3375 53.1094 75.3844 50.7656V49.9922C75.3844 47.4453 74.9937 45.5 74.2125 44.1562C73.4312 42.7969 71.9781 42.1172 69.8531 42.1172C68.275 42.1172 67.0406 42.7969 66.15 44.1562C65.2594 45.5156 64.8141 47.4766 64.8141 50.0391C64.8141 52.6016 65.2594 54.5312 66.15 55.8281C67.0562 57.125 68.3297 57.7734 69.9703 57.7734ZM102.745 36.3047C105.167 36.3047 107.253 36.7734 109.003 37.7109C110.753 38.6328 112.105 39.9766 113.058 41.7422C114.011 43.5078 114.488 45.6641 114.488 48.2109V51.6797H97.5891C97.6672 53.6953 98.2688 55.2812 99.3938 56.4375C100.534 57.5781 102.113 58.1484 104.128 58.1484C105.8 58.1484 107.331 57.9766 108.722 57.6328C110.113 57.2891 111.542 56.7734 113.011 56.0859V61.6172C111.714 62.2578 110.355 62.7266 108.933 63.0234C107.527 63.3203 105.816 63.4688 103.8 63.4688C101.175 63.4688 98.8469 62.9844 96.8156 62.0156C94.8 61.0469 93.2141 59.5703 92.0578 57.5859C90.9172 55.6016 90.3469 53.1016 90.3469 50.0859C90.3469 47.0234 90.8625 44.4766 91.8938 42.4453C92.9406 40.3984 94.3938 38.8672 96.2531 37.8516C98.1125 36.8203 100.277 36.3047 102.745 36.3047ZM102.792 41.3906C101.402 41.3906 100.245 41.8359 99.3234 42.7266C98.4172 43.6172 97.8938 45.0156 97.7531 46.9219H107.784C107.769 45.8594 107.573 44.9141 107.198 44.0859C106.839 43.2578 106.292 42.6016 105.558 42.1172C104.839 41.6328 103.917 41.3906 102.792 41.3906ZM140.981 55.2188C140.981 57 140.559 58.5078 139.716 59.7422C138.887 60.9609 137.645 61.8906 135.989 62.5312C134.333 63.1562 132.27 63.4688 129.802 63.4688C127.973 63.4688 126.403 63.3516 125.091 63.1172C123.794 62.8828 122.481 62.4922 121.153 61.9453V56.0391C122.575 56.6797 124.098 57.2109 125.723 57.6328C127.364 58.0391 128.802 58.2422 130.036 58.2422C131.427 58.2422 132.419 58.0391 133.012 57.6328C133.622 57.2109 133.927 56.6641 133.927 55.9922C133.927 55.5547 133.802 55.1641 133.552 54.8203C133.317 54.4609 132.802 54.0625 132.005 53.625C131.208 53.1719 129.958 52.5859 128.255 51.8672C126.614 51.1797 125.262 50.4844 124.2 49.7812C123.153 49.0781 122.372 48.25 121.856 47.2969C121.356 46.3281 121.106 45.1016 121.106 43.6172C121.106 41.1953 122.044 39.375 123.919 38.1562C125.809 36.9219 128.333 36.3047 131.489 36.3047C133.114 36.3047 134.661 36.4688 136.13 36.7969C137.614 37.125 139.137 37.6484 140.7 38.3672L138.544 43.5234C137.247 42.9609 136.02 42.5 134.864 42.1406C133.723 41.7812 132.559 41.6016 131.372 41.6016C130.325 41.6016 129.536 41.7422 129.005 42.0234C128.473 42.3047 128.208 42.7344 128.208 43.3125C128.208 43.7344 128.341 44.1094 128.606 44.4375C128.887 44.7656 129.419 45.1328 130.2 45.5391C130.997 45.9297 132.161 46.4375 133.692 47.0625C135.177 47.6719 136.466 48.3125 137.559 48.9844C138.653 49.6406 139.497 50.4609 140.091 51.4453C140.684 52.4141 140.981 53.6719 140.981 55.2188Z" fill="white"/>
<path d="M153.5 35.1375C157.166 35.1375 160.138 32.1658 160.138 28.5C160.138 24.8342 157.166 21.8625 153.5 21.8625C149.834 21.8625 146.863 24.8342 146.863 28.5C146.863 32.1658 149.834 35.1375 153.5 35.1375Z" stroke="white"/>
<path d="M153.095 27.9C153.508 27.9 153.808 27.8175 153.988 27.66C154.168 27.51 154.265 27.255 154.265 26.895C154.265 26.5425 154.168 26.295 153.988 26.1375C153.808 25.9875 153.508 25.9125 153.095 25.9125H152.255V27.9H153.095ZM152.255 29.2725V32.1975H150.26V24.465H153.305C154.325 24.465 155.068 24.6375 155.54 24.9825C156.02 25.32 156.253 25.86 156.253 26.6025C156.253 27.1125 156.133 27.5325 155.885 27.8625C155.638 28.185 155.27 28.4325 154.768 28.5825C155.045 28.65 155.285 28.7925 155.503 29.01C155.72 29.2275 155.938 29.5575 156.155 30.0075L157.243 32.1975H155.12L154.175 30.2775C153.988 29.895 153.793 29.625 153.598 29.49C153.403 29.3475 153.14 29.2725 152.818 29.2725H152.255Z" fill="white"/>
</svg>
