<svg width="30" height="30" viewBox="0 0 30 30" fill="none" xmlns="http://www.w3.org/2000/svg">
<circle cx="15" cy="15" r="15" fill="#F5F5F5"/>
<g clip-path="url(#clip0_123_794)">
<rect width="15" height="15" transform="translate(7.5 7.5)" fill="#F5F5F5"/>
<path d="M15.2935 7.5C12.9551 7.5 11.4405 8.4581 10.2513 10.1668C10.0356 10.4767 10.1021 10.9017 10.403 11.1299L11.6669 12.0882C11.9708 12.3186 12.4031 12.2647 12.6411 11.9666C13.3749 11.0473 13.9193 10.5179 15.0656 10.5179C15.9669 10.5179 17.0817 11.098 17.0817 11.972C17.0817 12.6327 16.5363 12.972 15.6463 13.4709C14.6086 14.0527 13.2352 14.7768 13.2352 16.5882V16.875C13.2352 17.2633 13.55 17.5781 13.9384 17.5781H16.0615C16.4499 17.5781 16.7647 17.2633 16.7647 16.875V16.7059C16.7647 15.4502 20.4346 15.3979 20.4346 12C20.4346 9.44109 17.7803 7.5 15.2935 7.5ZM15 18.4412C13.8809 18.4412 12.9705 19.3516 12.9705 20.4706C12.9705 21.5896 13.8809 22.5 15 22.5C16.119 22.5 17.0294 21.5896 17.0294 20.4706C17.0294 19.3516 16.119 18.4412 15 18.4412Z" fill="#B6B6B6"/>
</g>
<defs>
<clipPath id="clip0_123_794">
<rect width="15" height="15" fill="white" transform="translate(7.5 7.5)"/>
</clipPath>
</defs>
</svg>
