<svg width="23" height="25" viewBox="0 0 23 25" fill="none" xmlns="http://www.w3.org/2000/svg">
<path d="M20.0938 12.5H7.98438V7.46581C7.98438 5.53221 9.53223 3.92577 11.4658 3.90624C13.4189 3.88671 15.0156 5.47362 15.0156 7.42186V8.20311C15.0156 8.85253 15.5381 9.37499 16.1875 9.37499H17.75C18.3994 9.37499 18.9219 8.85253 18.9219 8.20311V7.42186C18.9219 3.3203 15.5771 -0.0146614 11.4756 -1.29629e-05C7.37402 0.0146355 4.07812 3.39354 4.07812 7.4951V12.5H2.90625C1.6123 12.5 0.5625 13.5498 0.5625 14.8437V22.6562C0.5625 23.9502 1.6123 25 2.90625 25H20.0938C21.3877 25 22.4375 23.9502 22.4375 22.6562V14.8437C22.4375 13.5498 21.3877 12.5 20.0938 12.5ZM13.4531 19.9219C13.4531 21.001 12.5791 21.875 11.5 21.875C10.4209 21.875 9.54688 21.001 9.54688 19.9219V17.5781C9.54688 16.499 10.4209 15.625 11.5 15.625C12.5791 15.625 13.4531 16.499 13.4531 17.5781V19.9219Z" fill="#293241"/>
</svg>
