<svg width="15" height="20" viewBox="0 0 15 20" fill="none" xmlns="http://www.w3.org/2000/svg">
<path d="M7.39143 0C4.2735 0 2.25401 1.27746 0.668502 3.5557C0.380885 3.96898 0.469557 4.53563 0.870768 4.83984L2.55585 6.11754C2.96104 6.42477 3.53756 6.35293 3.85479 5.95551C4.83327 4.72969 5.55909 4.02391 7.08749 4.02391C8.28921 4.02391 9.77561 4.7973 9.77561 5.96262C9.77561 6.84355 9.04839 7.29598 7.86182 7.96121C6.47811 8.73699 4.64702 9.70246 4.64702 12.1177V12.5C4.64702 13.0178 5.06674 13.4375 5.58452 13.4375H8.41542C8.93319 13.4375 9.35292 13.0178 9.35292 12.5V12.2745C9.35292 10.6003 14.2462 10.5305 14.2462 6C14.2462 2.58813 10.7071 0 7.39143 0ZM6.99999 14.5882C5.50796 14.5882 4.29409 15.8021 4.29409 17.2941C4.29409 18.7861 5.50796 20 6.99999 20C8.49202 20 9.70589 18.7861 9.70589 17.2941C9.70589 15.8021 8.49202 14.5882 6.99999 14.5882Z" fill="black"/>
</svg>
