<svg width="28" height="30" viewBox="0 0 28 30" fill="none" xmlns="http://www.w3.org/2000/svg">
<path d="M3.40893 27.313C-0.0147006 23.7805 0.049108 18.0839 3.49014 14.5642L15.7808 1.99222C18.3774 -0.663955 22.5982 -0.664189 25.1951 1.99222C27.7668 4.62272 27.7699 8.86696 25.1951 11.5006L14.4813 22.4489C12.732 24.2382 9.87387 24.2133 8.15421 22.3905C6.49747 20.6344 6.55061 17.851 8.23928 16.1237L16.6617 7.52007C17.024 7.15011 17.6175 7.14378 17.9875 7.50595L19.327 8.81722C19.697 9.17944 19.7033 9.773 19.3411 10.143L10.9195 18.7458C10.6306 19.0414 10.6127 19.5325 10.8816 19.8175C11.1377 20.0891 11.5405 20.0936 11.8008 19.8272L22.5146 8.87892C23.6638 7.70341 23.6638 5.78956 22.514 4.61341C21.3896 3.46339 19.5868 3.4628 18.462 4.61341L6.17128 17.1853C4.13438 19.2689 4.10298 22.6415 6.10149 24.7036C8.09426 26.7599 11.3155 26.7624 13.3119 24.7204L23.3936 14.4079C23.7555 14.0377 24.3491 14.031 24.7193 14.3929L26.0598 15.7033C26.43 16.0653 26.4367 16.6588 26.0748 17.0291L15.9931 27.3415C12.5023 30.912 6.85583 30.8697 3.40893 27.313Z" fill="#293241"/>
</svg>
