<svg width="34" height="34" viewBox="0 0 34 34" fill="none" xmlns="http://www.w3.org/2000/svg">
<path d="M17 0.046875C7.63477 0.046875 0.046875 7.63477 0.046875 17C0.046875 26.3652 7.63477 33.9531 17 33.9531C26.3652 33.9531 33.9531 26.3652 33.9531 17C33.9531 7.63477 26.3652 0.046875 17 0.046875ZM17 6.60938C20.3223 6.60938 23.0156 9.30273 23.0156 12.625C23.0156 15.9473 20.3223 18.6406 17 18.6406C13.6777 18.6406 10.9844 15.9473 10.9844 12.625C10.9844 9.30273 13.6777 6.60938 17 6.60938ZM17 30.125C12.9873 30.125 9.3916 28.3066 6.98535 25.4629C8.27051 23.043 10.7861 21.375 13.7188 21.375C13.8828 21.375 14.0469 21.4023 14.2041 21.4502C15.0928 21.7373 16.0225 21.9219 17 21.9219C17.9775 21.9219 18.9141 21.7373 19.7959 21.4502C19.9531 21.4023 20.1172 21.375 20.2812 21.375C23.2139 21.375 25.7295 23.043 27.0146 25.4629C24.6084 28.3066 21.0127 30.125 17 30.125Z" fill="#293241"/>
</svg>
