<svg width="50" height="50" viewBox="0 0 50 50" fill="none" xmlns="http://www.w3.org/2000/svg">
<rect width="50" height="50" rx="10" fill="#EE6C4D"/>
<path d="M21.0703 17.7148C24 17.7148 26.2461 18.3529 27.8086 19.6289C29.3711 20.9049 30.1523 22.8451 30.1523 25.4492V40H25.9922L24.8398 37.0312H24.6836C24.0586 37.8125 23.4206 38.4505 22.7695 38.9453C22.1185 39.4401 21.3698 39.8047 20.5234 40.0391C19.6771 40.2734 18.6484 40.3906 17.4375 40.3906C16.1484 40.3906 14.9896 40.1432 13.9609 39.6484C12.9453 39.1536 12.1445 38.3984 11.5586 37.3828C10.9727 36.3542 10.6797 35.0521 10.6797 33.4766C10.6797 31.1589 11.4935 29.4531 13.1211 28.3594C14.7487 27.2526 17.1901 26.6406 20.4453 26.5234L24.2344 26.4062V25.4492C24.2344 24.3034 23.9349 23.4635 23.3359 22.9297C22.737 22.3958 21.9036 22.1289 20.8359 22.1289C19.7812 22.1289 18.7461 22.2786 17.7305 22.5781C16.7148 22.8776 15.6992 23.2552 14.6836 23.7109L12.7109 19.6875C13.8698 19.0755 15.1654 18.5938 16.5977 18.2422C18.043 17.8906 19.5339 17.7148 21.0703 17.7148ZM24.2344 29.8828L21.9297 29.9609C20.0026 30.013 18.6615 30.3581 17.9062 30.9961C17.1641 31.6341 16.793 32.474 16.793 33.5156C16.793 34.4271 17.0599 35.0781 17.5938 35.4688C18.1276 35.8464 18.8242 36.0352 19.6836 36.0352C20.9596 36.0352 22.0339 35.6576 22.9062 34.9023C23.7917 34.1471 24.2344 33.0729 24.2344 31.6797V29.8828Z" fill="white"/>
<g clip-path="url(#clip0_34_1284)">
<path d="M35.1667 15.8542C37.2033 15.8542 38.8542 14.2032 38.8542 12.1667C38.8542 10.1301 37.2033 8.47916 35.1667 8.47916C33.1302 8.47916 31.4792 10.1301 31.4792 12.1667C31.4792 14.2032 33.1302 15.8542 35.1667 15.8542Z" stroke="white"/>
<path d="M34.9417 11.8333C35.1709 11.8333 35.3375 11.7875 35.4375 11.7C35.5375 11.6167 35.5917 11.475 35.5917 11.275C35.5917 11.0792 35.5375 10.9417 35.4375 10.8542C35.3375 10.7708 35.1709 10.7292 34.9417 10.7292H34.475V11.8333H34.9417ZM34.475 12.5958V14.2208H33.3667V9.92499H35.0584C35.625 9.92499 36.0375 10.0208 36.3 10.2125C36.5667 10.4 36.6959 10.7 36.6959 11.1125C36.6959 11.3958 36.6292 11.6292 36.4917 11.8125C36.3542 11.9917 36.15 12.1292 35.8709 12.2125C36.025 12.25 36.1584 12.3292 36.2792 12.45C36.4 12.5708 36.5209 12.7542 36.6417 13.0042L37.2459 14.2208H36.0667L35.5417 13.1542C35.4375 12.9417 35.3292 12.7917 35.2209 12.7167C35.1125 12.6375 34.9667 12.5958 34.7875 12.5958H34.475Z" fill="white"/>
</g>
<defs>
<clipPath id="clip0_34_1284">
<rect width="8.33333" height="8.33333" fill="white" transform="translate(31 8)"/>
</clipPath>
</defs>
</svg>
