<svg width="135" height="60" viewBox="0 0 135 60" fill="none" xmlns="http://www.w3.org/2000/svg">
<rect width="135" height="60" rx="10" fill="#EE6C4D"/>
<path d="M33.5938 42.4211L32.6719 40.0461H32.5469C31.7448 41.0566 30.9167 41.7597 30.0625 42.1555C29.2188 42.5409 28.1146 42.7336 26.75 42.7336C25.0729 42.7336 23.75 42.2545 22.7812 41.2961C21.8229 40.3378 21.3438 38.9732 21.3438 37.2024C21.3438 35.3482 21.9896 33.9836 23.2812 33.1086C24.5833 32.2232 26.5417 31.7336 29.1562 31.6399L32.1875 31.5461V30.7805C32.1875 29.0097 31.2812 28.1243 29.4688 28.1243C28.0729 28.1243 26.4323 28.5461 24.5469 29.3899L22.9688 26.1711C24.9792 25.1191 27.2083 24.593 29.6562 24.593C32 24.593 33.7969 25.1034 35.0469 26.1243C36.2969 27.1451 36.9219 28.6972 36.9219 30.7805V42.4211H33.5938ZM32.1875 34.3274L30.3438 34.3899C28.9583 34.4316 27.9271 34.6816 27.25 35.1399C26.5729 35.5982 26.2344 36.2961 26.2344 37.2336C26.2344 38.5774 27.0052 39.2493 28.5469 39.2493C29.651 39.2493 30.5312 38.9316 31.1875 38.2961C31.8542 37.6607 32.1875 36.817 32.1875 35.7649V34.3274ZM48.975 42.7336C46.9229 42.7336 45.3083 41.9368 44.1313 40.343C42.9646 38.7493 42.3813 36.5409 42.3813 33.718C42.3813 30.8534 42.975 28.6243 44.1625 27.0305C45.3604 25.4264 47.0063 24.6243 49.1 24.6243C51.2979 24.6243 52.975 25.4784 54.1313 27.1868H54.2875C54.0479 25.8847 53.9281 24.7232 53.9281 23.7024V18.1086H58.7094V42.4211H55.0531L54.1313 40.1555H53.9281C52.8448 41.8743 51.1938 42.7336 48.975 42.7336ZM50.6469 38.9368C51.8656 38.9368 52.7563 38.5826 53.3188 37.8743C53.8917 37.1659 54.2042 35.9628 54.2563 34.2649V33.7493C54.2563 31.8743 53.9646 30.5305 53.3813 29.718C52.8083 28.9055 51.8708 28.4993 50.5688 28.4993C49.5063 28.4993 48.6781 28.9524 48.0844 29.8586C47.501 30.7545 47.2094 32.0618 47.2094 33.7805C47.2094 35.4993 47.5063 36.7909 48.1 37.6555C48.6938 38.5097 49.5427 38.9368 50.6469 38.9368ZM72.5281 28.0149C71.5177 28.0149 70.726 28.3378 70.1531 28.9836C69.5802 29.6191 69.2521 30.5253 69.1688 31.7024H75.8563C75.8354 30.5253 75.5281 29.6191 74.9344 28.9836C74.3406 28.3378 73.5385 28.0149 72.5281 28.0149ZM73.2 42.7336C70.3875 42.7336 68.1896 41.9576 66.6063 40.4055C65.0229 38.8534 64.2313 36.6555 64.2313 33.8118C64.2313 30.8847 64.9604 28.6243 66.4188 27.0305C67.8875 25.4264 69.9135 24.6243 72.4969 24.6243C74.9656 24.6243 76.8875 25.3274 78.2625 26.7336C79.6375 28.1399 80.325 30.0826 80.325 32.5618V34.8743H69.0594C69.1115 36.2284 69.5125 37.2857 70.2625 38.0461C71.0125 38.8066 72.0646 39.1868 73.4188 39.1868C74.4708 39.1868 75.4656 39.0774 76.4031 38.8586C77.3406 38.6399 78.3198 38.2909 79.3406 37.8118V41.4993C78.5073 41.9159 77.6167 42.2232 76.6688 42.4211C75.7208 42.6295 74.5646 42.7336 73.2 42.7336ZM97.9875 37.2336C97.9875 39.0253 97.3625 40.3899 96.1125 41.3274C94.8729 42.2649 93.0135 42.7336 90.5344 42.7336C89.2635 42.7336 88.1802 42.6451 87.2844 42.468C86.3885 42.3014 85.55 42.0514 84.7687 41.718V37.7805C85.6542 38.1972 86.649 38.5461 87.7531 38.8274C88.8677 39.1086 89.8469 39.2493 90.6906 39.2493C92.4198 39.2493 93.2844 38.7493 93.2844 37.7493C93.2844 37.3743 93.1698 37.0722 92.9406 36.843C92.7115 36.6034 92.3156 36.3378 91.7531 36.0461C91.1906 35.7441 90.4406 35.3951 89.5031 34.9993C88.1594 34.4368 87.1698 33.9159 86.5344 33.4368C85.9094 32.9576 85.451 32.4107 85.1594 31.7961C84.8781 31.1711 84.7375 30.4055 84.7375 29.4993C84.7375 27.9472 85.3365 26.7493 86.5344 25.9055C87.7427 25.0514 89.451 24.6243 91.6594 24.6243C93.7635 24.6243 95.8104 25.0826 97.8 25.9993L96.3625 29.4368C95.4875 29.0618 94.6698 28.7545 93.9094 28.5149C93.149 28.2753 92.3729 28.1555 91.5812 28.1555C90.175 28.1555 89.4719 28.5357 89.4719 29.2961C89.4719 29.7232 89.6958 30.093 90.1437 30.4055C90.6021 30.718 91.5969 31.1816 93.1281 31.7961C94.4927 32.3482 95.4927 32.8639 96.1281 33.343C96.7635 33.8222 97.2323 34.3743 97.5344 34.9993C97.8365 35.6243 97.9875 36.3691 97.9875 37.2336Z" fill="white"/>
<g clip-path="url(#clip0_34_1277)">
<path d="M109.54 24.0784C111.984 24.0784 113.965 21.993 113.965 19.4205C113.965 16.848 111.984 14.7626 109.54 14.7626C107.097 14.7626 105.115 16.848 105.115 19.4205C105.115 21.993 107.097 24.0784 109.54 24.0784Z" stroke="white"/>
<path d="M109.271 18.9994C109.546 18.9994 109.746 18.9415 109.866 18.831C109.986 18.7257 110.051 18.5468 110.051 18.2941C110.051 18.0468 109.986 17.8731 109.866 17.7626C109.746 17.6573 109.546 17.6047 109.271 17.6047H108.711V18.9994H109.271ZM108.711 19.9626V22.0152H107.381V16.5889H109.411C110.091 16.5889 110.586 16.7099 110.901 16.952C111.221 17.1889 111.376 17.5678 111.376 18.0889C111.376 18.4468 111.296 18.7415 111.131 18.9731C110.966 19.1994 110.721 19.3731 110.386 19.4784C110.571 19.5257 110.731 19.6257 110.876 19.7784C111.021 19.931 111.166 20.1626 111.311 20.4784L112.036 22.0152H110.621L109.991 20.6678C109.866 20.3994 109.736 20.2099 109.606 20.1152C109.476 20.0152 109.301 19.9626 109.086 19.9626H108.711Z" fill="white"/>
</g>
<defs>
<clipPath id="clip0_34_1277">
<rect width="10" height="10.5263" fill="white" transform="translate(104.541 14.1573)"/>
</clipPath>
</defs>
</svg>
